<svg width="1512" height="982" viewBox="0 0 1512 982" fill="none" xmlns="http://www.w3.org/2000/svg">
<g clip-path="url(#clip0_18_2)">
<g opacity="0.05" clip-path="url(#clip1_18_2)">
<path fill-rule="evenodd" clip-rule="evenodd" d="M213.321 846.856C199.957 855.021 185.052 860.339 169.538 862.478C154.025 864.617 138.237 863.53 123.162 859.286C108.088 855.043 94.0518 847.733 81.9326 837.814C69.8135 827.896 59.8722 815.583 52.731 801.645L52.5793 801.342L-364.635 -33.0107C-373.363 -50.3322 -377.519 -69.5975 -376.707 -88.977C-375.896 -108.356 -370.143 -127.207 -359.997 -143.738C-349.85 -160.268 -335.646 -173.931 -318.734 -183.428C-301.821 -192.925 -282.762 -197.941 -263.366 -198L571.366 -198C590.759 -197.948 609.816 -192.94 626.729 -183.452C643.642 -173.964 657.85 -160.312 668.003 -143.79C678.156 -127.268 683.918 -108.425 684.742 -89.0499C685.567 -69.675 681.425 -50.411 672.711 -33.0865L672.711 -33.0106L255.345 801.342L255.194 801.645C245.639 820.29 231.199 835.935 213.321 846.856ZM154 551.089C138.911 551.089 124.44 545.095 113.771 534.426C103.101 523.756 97.1074 509.285 97.1074 494.197L97.1074 247.661C97.1074 232.572 103.101 218.101 113.771 207.431C124.44 196.762 138.911 190.768 154 190.768C169.089 190.768 183.56 196.762 194.23 207.431C204.899 218.101 210.893 232.572 210.893 247.661L210.893 494.197C210.893 509.285 204.899 523.756 194.23 534.426C183.56 545.095 169.089 551.089 154 551.089ZM78.1431 39.0536C78.1431 18.9351 86.1353 -0.359488 100.361 -14.5854C114.587 -28.8115 133.882 -36.8035 154 -36.8035C174.119 -36.8035 193.413 -28.8114 207.639 -14.5854C221.865 -0.359477 229.857 18.9351 229.857 39.0536C229.857 59.1722 221.865 78.4668 207.639 92.6927C193.413 106.919 174.119 114.911 154 114.911C133.882 114.911 114.587 106.919 100.361 92.6927C86.1353 78.4667 78.1431 59.1722 78.1431 39.0536Z" fill="#D7E2CC"/>
</g>
</g>
<defs>
<clipPath id="clip0_18_2">
<rect width="1512" height="982" fill="black"/>
</clipPath>
<clipPath id="clip1_18_2">
<rect width="1062" height="1062" fill="black" transform="translate(685 864) rotate(-180)"/>
</clipPath>
</defs>
</svg>
