<svg width="217" height="217" viewBox="0 0 217 217" fill="none" xmlns="http://www.w3.org/2000/svg">
<path d="M92.9516 61.9902C78.1388 61.9902 66.0847 49.8829 66.0847 34.9951C66.0847 20.1073 78.1345 8 92.9516 8C107.769 8 119.818 20.1073 119.818 34.9951C119.818 49.8829 107.764 61.9902 92.9516 61.9902ZM92.9516 11.5078C80.0622 11.5078 69.5759 22.0442 69.5759 34.9951C69.5759 47.9461 80.0622 58.4824 92.9516 58.4824C105.841 58.4824 116.327 47.9461 116.327 34.9951C116.327 22.0442 105.841 11.5078 92.9516 11.5078Z" fill="#EAFFD5"/>
<path d="M120.891 62.8553C134.764 62.8553 146.01 51.5554 146.01 37.6163C146.01 23.6771 134.764 12.3772 120.891 12.3772C107.018 12.3772 95.772 23.6771 95.772 37.6163C95.772 51.5554 107.018 62.8553 120.891 62.8553Z" fill="#E37B7D"/>
<path d="M91.8976 199.101C78.4299 199.101 67.4681 188.091 67.4681 174.555V97.417C67.4681 83.885 78.4256 72.8709 91.8976 72.8709C94.0651 72.8709 96.2198 73.1636 98.3102 73.7403L97.3849 77.119C95.5987 76.6241 93.7524 76.3744 91.9019 76.3744C80.3575 76.3744 70.9636 85.8132 70.9636 97.4127V174.555C70.9636 186.154 80.3575 195.593 91.9019 195.593C94.3222 195.593 96.7424 195.154 99.0898 194.289L100.294 197.581C97.5606 198.593 94.7377 199.101 91.9019 199.101H91.8976Z" fill="#EAFFD5"/>
<path d="M99.6854 78.0499C98.6788 77.5936 97.6379 77.2149 96.5841 76.9222L97.5094 73.5435C98.7345 73.8835 99.951 74.3226 101.12 74.8563L99.6854 78.0499Z" fill="#EAFFD5"/>
<path d="M123.305 200.852C108.874 200.852 97.1324 189.055 97.1324 174.555V97.417C97.1324 82.9166 108.874 71.1191 123.305 71.1191C137.737 71.1191 149.478 82.9166 149.478 97.417V174.559C149.478 189.059 137.737 200.857 123.305 200.857V200.852ZM123.305 74.6227C110.797 74.6227 100.624 84.8448 100.624 97.4127V174.555C100.624 187.122 110.797 197.345 123.305 197.345C135.814 197.345 145.987 187.122 145.987 174.555V97.417C145.987 84.8491 135.814 74.627 123.305 74.627V74.6227Z" fill="#E37B7D"/>
</svg>
